HIERARCHY
ROOT Hips
{
	OFFSET 0.000000 0.000000 0.000000
	CHANNELS 6 Xposition Yposition Zposition Xrotation Yrotation Zrotation
	JOINT LHipJoint
	{
		OFFSET 0.000000 0.000000 0.000000
		CHANNELS 6 Xposition Yposition Zposition Xrotation Yrotation Zrotation
		JOINT LeftUpLeg
		{
			OFFSET 1.076881 -0.406101 -1.171833
			CHANNELS 6 Xposition Yposition Zposition Xrotation Yrotation Zrotation
			JOINT LeftLeg
			{
				OFFSET 1.688180 -0.000000 -4.638244
				CHANNELS 6 Xposition Yposition Zposition Xrotation Yrotation Zrotation
				JOINT LeftFoot
				{
					OFFSET 1.620034 -0.000000 -4.451005
					CHANNELS 6 Xposition Yposition Zposition Xrotation Yrotation Zrotation
					JOINT LeftToeBase
					{
						OFFSET 0.128076 -1.394776 -0.351884
						CHANNELS 6 Xposition Yposition Zposition Xrotation Yrotation Zrotation
						End Site
						{
							OFFSET 0.000000 -0.723119 0.000000
						}
					}
				}
			}
		}
	}
	JOINT RHipJoint
	{
		OFFSET 0.000000 0.000000 0.000000
		CHANNELS 6 Xposition Yposition Zposition Xrotation Yrotation Zrotation
		JOINT RightUpLeg
		{
			OFFSET -1.046955 -0.406094 -1.171833
			CHANNELS 6 Xposition Yposition Zposition Xrotation Yrotation Zrotation
			JOINT RightLeg
			{
				OFFSET -1.686763 -0.000000 -4.634350
				CHANNELS 6 Xposition Yposition Zposition Xrotation Yrotation Zrotation
				JOINT RightFoot
				{
					OFFSET -1.604070 -0.000000 -4.407156
					CHANNELS 6 Xposition Yposition Zposition Xrotation Yrotation Zrotation
					JOINT RightToeBase
					{
						OFFSET -0.149656 -1.386892 -0.411177
						CHANNELS 6 Xposition Yposition Zposition Xrotation Yrotation Zrotation
						End Site
						{
							OFFSET 0.000000 -0.725199 0.000000
						}
					}
				}
			}
		}
	}
	JOINT LowerBack
	{
		OFFSET 0.000000 0.000000 0.000000
		CHANNELS 6 Xposition Yposition Zposition Xrotation Yrotation Zrotation
		JOINT Spine
		{
			OFFSET 0.012746 0.091728 1.335425
			CHANNELS 6 Xposition Yposition Zposition Xrotation Yrotation Zrotation
			JOINT Spine1
			{
				OFFSET 0.006637 0.038487 1.341834
				CHANNELS 6 Xposition Yposition Zposition Xrotation Yrotation Zrotation
				JOINT Neck
				{
					OFFSET 0.000000 0.000000 0.000000
					CHANNELS 6 Xposition Yposition Zposition Xrotation Yrotation Zrotation
					JOINT Neck1
					{
						OFFSET 0.004634 -0.097292 1.018621
						CHANNELS 6 Xposition Yposition Zposition Xrotation Yrotation Zrotation
						JOINT Head
						{
							OFFSET 0.022288 0.065039 1.014266
							CHANNELS 6 Xposition Yposition Zposition Xrotation Yrotation Zrotation
							End Site
							{
								OFFSET 0.008483 0.034223 1.056640
							}
						}
					}
				}
				JOINT LeftShoulder
				{
					OFFSET 0.000000 0.000000 0.000000
					CHANNELS 6 Xposition Yposition Zposition Xrotation Yrotation Zrotation
					JOINT LeftArm
					{
						OFFSET 2.302332 0.112866 0.587834
						CHANNELS 6 Xposition Yposition Zposition Xrotation Yrotation Zrotation
						JOINT LeftForeArm
						{
							OFFSET 3.162334 0.000000 0.000000
							CHANNELS 6 Xposition Yposition Zposition Xrotation Yrotation Zrotation
							JOINT LeftHand
							{
								OFFSET 2.181101 0.000000 0.000000
								CHANNELS 6 Xposition Yposition Zposition Xrotation Yrotation Zrotation
								JOINT LeftFingerBase
								{
									OFFSET 0.000000 0.000000 0.000000
									CHANNELS 6 Xposition Yposition Zposition Xrotation Yrotation Zrotation
									JOINT LeftHandIndex1
									{
										OFFSET 0.429761 0.000000 0.000000
										CHANNELS 6 Xposition Yposition Zposition Xrotation Yrotation Zrotation
										End Site
										{
											OFFSET 0.346489 0.000000 0.000000
										}
									}
								}
								JOINT LThumb
								{
									OFFSET 0.000000 0.000000 0.000000
									CHANNELS 6 Xposition Yposition Zposition Xrotation Yrotation Zrotation
									End Site
									{
										OFFSET 0.351780 -0.351780 0.000000
									}
								}
							}
						}
					}
				}
				JOINT RightShoulder
				{
					OFFSET 0.000000 0.000000 0.000000
					CHANNELS 6 Xposition Yposition Zposition Xrotation Yrotation Zrotation
					JOINT RightArm
					{
						OFFSET -2.273713 0.212004 0.493961
						CHANNELS 6 Xposition Yposition Zposition Xrotation Yrotation Zrotation
						JOINT RightForeArm
						{
							OFFSET -3.267218 0.000000 0.000000
							CHANNELS 6 Xposition Yposition Zposition Xrotation Yrotation Zrotation
							JOINT RightHand
							{
								OFFSET -2.186801 0.000000 0.000000
								CHANNELS 6 Xposition Yposition Zposition Xrotation Yrotation Zrotation
								JOINT RightFingerBase
								{
									OFFSET 0.000000 0.000000 0.000000
									CHANNELS 6 Xposition Yposition Zposition Xrotation Yrotation Zrotation
									JOINT RightHandIndex1
									{
										OFFSET -0.474766 0.000000 0.000000
										CHANNELS 6 Xposition Yposition Zposition Xrotation Yrotation Zrotation
										End Site
										{
											OFFSET -0.382766 0.000000 0.000000
										}
									}
								}
								JOINT RThumb
								{
									OFFSET 0.000000 0.000000 0.000000
									CHANNELS 6 Xposition Yposition Zposition Xrotation Yrotation Zrotation
									End Site
									{
										OFFSET -0.388609 -0.388609 0.000000
									}
								}
							}
						}
					}
				}
			}
		}
	}
}
MOTION
Frames: 6
Frame Time: 0.040000
6.265415 4.870849 11.128057 -4.151187 4.335117 -8.434990 -0.000000 -0.000000 0.000001 -0.000000 -0.000004 0.000004 1.076881 -0.406101 -1.171833 -24.393780 17.920678 -7.336433 1.688181 0.000000 -4.638245 21.072812 1.400533 7.519713 1.620033 -0.000000 -4.451005 -16.949712 -3.223678 9.885854 0.128076 -1.394776 -0.351883 -13.597182 0.585529 -4.908649 -0.000000 -0.000000 0.000001 0.000003 0.000001 -0.000003 -1.046954 -0.406094 -1.171833 21.959068 -26.215714 7.460398 -1.686764 -0.000001 -4.634350 8.921901 -0.252498 -3.235924 -1.604069 0.000000 -4.407158 -13.040898 -1.005793 6.674889 -0.149656 -1.386892 -0.411176 -7.823178 -0.194225 2.839724 -0.000000 -0.000000 0.000001 6.910400 -5.705591 2.035492 0.012747 0.091729 1.335426 3.464213 -1.095118 2.117052 0.006637 0.038486 1.341835 -0.095280 2.189612 1.114019 -0.000000 -0.000000 -0.000002 -9.770452 -2.745359 4.569554 0.004634 -0.097292 1.018621 -2.124221 4.096259 6.596414 0.022288 0.065039 1.014269 0.000001 -0.000000 0.000001 -0.000000 -0.000000 -0.000003 -0.000001 0.000002 -0.000000 2.302331 0.112865 0.587835 207.763740 84.308105 -192.345845 3.162335 0.000000 0.000001 -1.373269 -9.379146 -16.623980 2.181101 -0.000000 0.000000 -11.427416 -0.000003 -0.000002 0.000000 -0.000000 -0.000001 0.000001 0.000001 -0.000003 0.429760 -0.000000 0.000000 0.000001 0.000000 0.000000 0.000000 0.000000 -0.000000 0.000000 0.000001 -0.000000 -0.000000 -0.000000 -0.000003 0.000003 -0.000000 0.000001 -2.273713 0.212004 0.493961 59.422892 -43.103459 75.868894 -3.267220 -0.000001 0.000000 -8.671546 21.611924 43.328763 -2.186802 -0.000000 -0.000001 -17.409464 0.000010 0.000003 0.000001 -0.000002 0.000000 -0.000001 0.000000 0.000001 -0.474765 -0.000001 0.000000 0.000000 -0.000001 -0.000001 0.000000 -0.000002 0.000001 -0.000002 0.000000 -0.000002 
6.296198 4.227773 11.093334 -4.263693 3.546020 -9.102060 0.000000 -0.000000 -0.000000 -0.000002 -0.000003 0.000008 1.076880 -0.406100 -1.171834 -23.985879 18.842223 -4.411994 1.688180 0.000000 -4.638245 22.579180 1.606204 8.033390 1.620034 0.000001 -4.451005 -14.781632 -2.973927 11.633046 0.128076 -1.394776 -0.351884 -11.337873 0.407466 -4.103296 0.000000 -0.000000 -0.000000 -0.000001 0.000000 -0.000005 -1.046955 -0.406094 -1.171834 24.111179 -24.650320 8.339524 -1.686763 0.000000 -4.634350 11.971091 -0.454140 -4.329615 -1.604070 -0.000000 -4.407157 -13.037561 -0.862443 5.841130 -0.149655 -1.386891 -0.411177 -12.748713 -0.514941 4.606885 0.000000 -0.000000 -0.000000 5.999780 -4.556609 2.081219 0.012747 0.091728 1.335426 3.418265 -0.867170 2.403843 0.006636 0.038487 1.341834 0.327166 1.721792 1.219552 0.000000 0.000000 -0.000000 -9.277167 -3.055695 5.349577 0.004635 -0.097292 1.018621 -1.744166 3.600760 7.623818 0.022288 0.065039 1.014266 0.000001 -0.000000 0.000001 0.000000 0.000000 -0.000001 0.000000 0.000001 -0.000001 2.302332 0.112866 0.587833 227.874590 83.262076 -213.520524 3.162333 -0.000000 -0.000000 -1.055530 -8.253585 -14.551266 2.181099 0.000001 0.000000 -8.420415 -0.000003 0.000000 -0.000001 0.000001 0.000001 -0.000001 -0.000001 -0.000003 0.429761 0.000001 0.000001 -0.000001 -0.000000 0.000000 -0.000001 0.000002 0.000001 -0.000001 -0.000001 -0.000000 0.000000 0.000000 -0.000000 0.000002 -0.000000 0.000001 -2.273713 0.212003 0.493961 58.677315 -43.794504 75.406026 -3.267219 0.000000 -0.000001 -9.221569 22.139227 44.804941 -2.186801 -0.000000 -0.000001 -16.603983 0.000011 0.000003 -0.000000 -0.000000 -0.000000 0.000000 0.000001 0.000003 -0.474766 -0.000001 0.000000 0.000000 0.000000 0.000001 -0.000001 0.000000 0.000000 -0.000001 0.000000 -0.000002 
6.323956 3.547844 11.084815 -4.734593 3.166849 -8.488204 -0.000001 -0.000000 -0.000002 0.000001 -0.000001 0.000007 1.076882 -0.406100 -1.171833 -24.453061 19.761366 -1.651238 1.688181 -0.000000 -4.638244 27.536830 2.379087 9.687275 1.620034 -0.000000 -4.451004 -10.764907 -2.213731 14.659418 0.128076 -1.394777 -0.351884 -12.171680 0.469462 -4.401248 -0.000001 -0.000000 -0.000002 0.000002 -0.000004 -0.000001 -1.046956 -0.406094 -1.171832 27.350640 -23.762380 9.207615 -1.686763 -0.000000 -4.634350 13.565702 -0.582875 -4.897473 -1.604069 -0.000001 -4.407156 -9.431892 -0.242162 3.177450 -0.149656 -1.386891 -0.411178 -20.987349 -1.389335 7.490416 -0.000001 -0.000000 -0.000002 5.646024 -3.447014 1.782595 0.012746 0.091728 1.335423 2.871735 -0.954108 2.128919 0.006637 0.038486 1.341835 -0.142759 1.047598 1.090908 0.000000 -0.000000 -0.000000 -8.564694 -3.688884 5.930564 0.004636 -0.097292 1.018621 -0.532080 3.359435 8.374236 0.022289 0.065039 1.014267 0.000002 -0.000000 0.000001 0.000000 -0.000000 -0.000001 0.000000 0.000001 0.000000 2.302332 0.112867 0.587834 240.076177 81.558059 -226.114956 3.162334 0.000000 0.000000 -0.932892 -7.791116 -13.635516 2.181101 0.000001 0.000001 -5.423531 -0.000002 0.000003 -0.000000 -0.000000 0.000000 0.000001 0.000001 -0.000004 0.429760 -0.000000 -0.000000 0.000001 0.000000 0.000000 0.000000 0.000000 0.000000 0.000000 0.000001 0.000003 0.000000 -0.000000 -0.000001 -0.000000 0.000001 0.000002 -2.273713 0.212004 0.493961 60.960456 -44.918889 75.611622 -3.267218 0.000000 -0.000001 -9.257707 22.172918 44.900660 -2.186802 -0.000001 -0.000001 -16.198804 0.000010 -0.000002 0.000000 0.000000 -0.000000 0.000001 0.000001 0.000002 -0.474765 -0.000000 -0.000000 0.000000 0.000001 0.000001 -0.000000 0.000000 0.000000 -0.000000 0.000000 0.000000 
6.350564 2.887299 11.103425 -4.579262 2.107106 -7.142108 -0.000001 0.000001 0.000001 -0.000003 -0.000003 0.000005 1.076880 -0.406101 -1.171833 -24.384069 21.224053 0.321161 1.688180 0.000000 -4.638245 30.809327 2.968347 10.743894 1.620035 -0.000000 -4.451005 -9.523156 -1.503586 10.414777 0.128077 -1.394776 -0.351883 -5.503447 0.096135 -2.000402 -0.000001 0.000001 0.000001 -0.000000 -0.000003 -0.000003 -1.046956 -0.406095 -1.171832 22.600526 -23.226955 7.552787 -1.686763 -0.000001 -4.634350 24.926989 -1.954058 -8.823991 -1.604071 0.000001 -4.407156 -4.016777 -0.089508 1.460835 -0.149655 -1.386893 -0.411177 -22.989578 -1.664653 8.172468 -0.000001 0.000001 0.000001 4.407408 -2.152550 1.460997 0.012747 0.091728 1.335426 2.319029 -0.555295 1.829383 0.006636 0.038487 1.341834 -0.037607 0.635049 0.918076 0.000000 0.000000 0.000001 -8.602689 -3.927309 6.089481 0.004635 -0.097292 1.018622 1.065572 3.113505 8.534035 0.022288 0.065039 1.014269 0.000000 -0.000000 0.000000 0.000000 0.000000 0.000000 0.000000 0.000001 0.000001 2.302331 0.112866 0.587834 246.210424 81.475605 -234.373679 3.162334 -0.000001 0.000001 -0.826597 -7.323596 -12.862134 2.181101 0.000000 0.000001 -3.106207 -0.000001 0.000000 -0.000000 0.000000 -0.000001 -0.000000 0.000000 -0.000000 0.429761 -0.000000 -0.000000 -0.000000 -0.000000 0.000000 -0.000000 0.000001 -0.000001 -0.000000 -0.000000 0.000003 0.000000 0.000000 0.000000 0.000000 -0.000000 0.000001 -2.273713 0.212004 0.493961 65.640290 -47.098635 76.663887 -3.267218 -0.000000 -0.000000 -9.164043 22.085439 44.652088 -2.186803 0.000001 -0.000001 -17.249605 0.000010 -0.000002 -0.000000 0.000001 -0.000001 -0.000002 -0.000001 0.000000 -0.474765 0.000001 -0.000000 -0.000001 -0.000001 -0.000000 -0.000001 0.000001 -0.000000 -0.000003 -0.000002 -0.000002 
6.406074 2.286571 11.164461 -4.550820 1.188023 -6.815422 -0.000001 -0.000000 0.000001 -0.000001 -0.000003 0.000005 1.076880 -0.406100 -1.171833 -21.574674 23.003486 0.869422 1.688181 0.000001 -4.638244 31.207151 3.044204 10.870238 1.620035 0.000000 -4.451005 -12.125963 -1.831419 8.491711 0.128076 -1.394776 -0.351884 -3.363845 0.035906 -1.223698 -0.000001 -0.000000 0.000001 0.000005 -0.000004 -0.000001 -1.046956 -0.406094 -1.171833 14.990184 -22.007214 6.974488 -1.686762 -0.000000 -4.634350 37.051696 -4.260513 -12.668184 -1.604070 -0.000000 -4.407156 9.625949 -0.304249 -3.550673 -0.149654 -1.386893 -0.411177 -29.417352 -2.710148 10.298152 -0.000001 -0.000000 0.000001 4.627432 -1.688144 1.394347 0.012746 0.091729 1.335426 1.418317 -0.145727 1.795728 0.006637 0.038487 1.341834 -1.086453 0.905581 0.911720 0.000001 0.000000 0.000001 -7.944488 -4.452889 6.219401 0.004635 -0.097292 1.018622 2.771427 3.153834 8.670840 0.022289 0.065039 1.014268 0.000002 -0.000000 0.000002 0.000001 0.000000 0.000000 0.000000 0.000002 -0.000000 2.302332 0.112867 0.587832 217.573354 85.552737 -207.116662 3.162337 0.000000 -0.000000 -1.074182 -8.324355 -14.680674 2.181100 0.000000 0.000001 -7.138697 -0.000002 0.000002 -0.000000 -0.000000 0.000001 -0.000001 -0.000000 -0.000001 0.429761 -0.000000 0.000001 -0.000000 -0.000001 0.000000 0.000000 0.000000 0.000001 -0.000001 -0.000000 0.000003 0.000001 0.000000 0.000000 0.000001 -0.000000 0.000001 -2.273713 0.212004 0.493961 70.730024 -49.137877 78.610280 -3.267217 -0.000000 0.000001 -8.107174 21.039233 41.776995 -2.186802 0.000000 0.000000 -17.299517 0.000005 -0.000002 0.000000 0.000001 -0.000001 0.000001 -0.000001 0.000001 -0.474766 -0.000000 0.000000 -0.000001 0.000000 0.000001 -0.000000 0.000001 -0.000000 -0.000000 -0.000001 -0.000002 
6.442332 1.733191 11.251063 -4.443982 -1.463812 -7.114995 0.000000 0.000001 -0.000001 -0.000005 0.000001 0.000005 1.076882 -0.406101 -1.171833 -18.174828 26.455438 1.747602 1.688180 -0.000001 -4.638245 29.701812 2.761983 10.389706 1.620033 0.000000 -4.451005 -14.210462 -2.234770 7.995974 0.128076 -1.394776 -0.351883 -0.158054 0.000051 -0.057521 0.000000 0.000001 -0.000001 0.000003 0.000001 -0.000003 -1.046955 -0.406094 -1.171833 5.572589 -19.345327 6.528403 -1.686763 0.000001 -4.634351 47.421853 -6.861726 -15.545932 -1.604069 -0.000000 -4.407155 13.617545 -1.534535 -8.641712 -0.149655 -1.386892 -0.411178 -34.539133 -3.714426 11.909079 0.000000 0.000001 -0.000001 4.502455 1.350282 1.046236 0.012746 0.091728 1.335425 1.232202 0.259984 1.463331 0.006636 0.038486 1.341834 -1.283720 -0.470099 0.763844 -0.000001 -0.000000 -0.000001 -8.812906 -4.602783 6.811556 0.004635 -0.097292 1.018622 4.425437 4.003209 9.468690 0.022289 0.065039 1.014266 -0.000001 0.000000 -0.000001 -0.000001 0.000000 -0.000001 0.000001 0.000003 -0.000000 2.302330 0.112866 0.587832 129.214598 82.140306 -120.510191 3.162334 -0.000001 0.000001 -1.840699 -10.799086 -19.291635 2.181100 0.000000 0.000001 -15.560913 -0.000006 0.000005 0.000001 -0.000000 0.000001 0.000000 0.000000 -0.000005 0.429761 0.000000 0.000000 0.000000 0.000001 0.000001 0.000001 0.000000 0.000001 0.000000 -0.000000 -0.000005 -0.000001 0.000000 -0.000001 0.000002 0.000000 0.000001 -2.273713 0.212003 0.493962 73.704599 -49.448104 79.752458 -3.267217 -0.000000 0.000000 -6.720526 19.476373 37.774013 -2.186801 0.000000 -0.000000 -15.856706 -0.032749 -0.004561 -0.000001 0.000001 -0.000001 -0.000001 0.000001 -0.000001 -0.474764 -0.000001 -0.000000 -0.000002 0.000001 0.000005 -0.000002 0.000001 -0.000000 -0.000002 0.000000 0.000000 
